<svg id="visual" viewBox="0 0 900 600" width="900" height="600" xmlns="http://www.w3.org/2000/svg" xmlns:xlink="http://www.w3.org/1999/xlink" version="1.1"><path d="M0 235L37.5 230.3C75 225.7 150 216.3 225 207.5C300 198.7 375 190.3 450 184.7C525 179 600 176 675 177.7C750 179.3 825 185.7 862.5 188.8L900 192L900 0L862.5 0C825 0 750 0 675 0C600 0 525 0 450 0C375 0 300 0 225 0C150 0 75 0 37.5 0L0 0Z" fill="#ffffff"></path><path d="M0 194L37.5 191.2C75 188.3 150 182.7 225 172.2C300 161.7 375 146.3 450 145C525 143.7 600 156.3 675 163.5C750 170.7 825 172.3 862.5 173.2L900 174L900 0L862.5 0C825 0 750 0 675 0C600 0 525 0 450 0C375 0 300 0 225 0C150 0 75 0 37.5 0L0 0Z" fill="#d7d6ff"></path><path d="M0 108L37.5 109.8C75 111.7 150 115.3 225 118.8C300 122.3 375 125.7 450 129C525 132.3 600 135.7 675 130.5C750 125.3 825 111.7 862.5 104.8L900 98L900 0L862.5 0C825 0 750 0 675 0C600 0 525 0 450 0C375 0 300 0 225 0C150 0 75 0 37.5 0L0 0Z" fill="#acafff"></path><path d="M0 69L37.5 69.3C75 69.7 150 70.3 225 74.2C300 78 375 85 450 89.8C525 94.7 600 97.3 675 94.5C750 91.7 825 83.3 862.5 79.2L900 75L900 0L862.5 0C825 0 750 0 675 0C600 0 525 0 450 0C375 0 300 0 225 0C150 0 75 0 37.5 0L0 0Z" fill="#7789ff"></path><path d="M0 45L37.5 45.3C75 45.7 150 46.3 225 45.7C300 45 375 43 450 42.2C525 41.3 600 41.7 675 44.3C750 47 825 52 862.5 54.5L900 57L900 0L862.5 0C825 0 750 0 675 0C600 0 525 0 450 0C375 0 300 0 225 0C150 0 75 0 37.5 0L0 0Z" fill="#0066ff"></path></svg>