<svg id="visual" viewBox="0 0 900 250" width="900" height="250" xmlns="http://www.w3.org/2000/svg" xmlns:xlink="http://www.w3.org/1999/xlink" version="1.1"><path d="M0 168L25 166.5C50 165 100 162 150 159.2C200 156.3 250 153.7 300 160.3C350 167 400 183 450 187.8C500 192.7 550 186.3 600 180.5C650 174.7 700 169.3 750 172.7C800 176 850 188 875 194L900 200L900 0L875 0C850 0 800 0 750 0C700 0 650 0 600 0C550 0 500 0 450 0C400 0 350 0 300 0C250 0 200 0 150 0C100 0 50 0 25 0L0 0Z" fill="#212529"></path><path d="M0 132L25 133C50 134 100 136 150 133.7C200 131.3 250 124.7 300 119.7C350 114.7 400 111.3 450 115C500 118.7 550 129.3 600 136.8C650 144.3 700 148.7 750 143.7C800 138.7 850 124.3 875 117.2L900 110L900 0L875 0C850 0 800 0 750 0C700 0 650 0 600 0C550 0 500 0 450 0C400 0 350 0 300 0C250 0 200 0 150 0C100 0 50 0 25 0L0 0Z" fill="#0f416c"></path><path d="M0 100L25 96.7C50 93.3 100 86.7 150 81C200 75.3 250 70.7 300 76C350 81.3 400 96.7 450 100.2C500 103.7 550 95.3 600 94.3C650 93.3 700 99.7 750 98C800 96.3 850 86.7 875 81.8L900 77L900 0L875 0C850 0 800 0 750 0C700 0 650 0 600 0C550 0 500 0 450 0C400 0 350 0 300 0C250 0 200 0 150 0C100 0 50 0 25 0L0 0Z" fill="#005ab4"></path><path d="M0 49L25 46.5C50 44 100 39 150 41.7C200 44.3 250 54.7 300 59.8C350 65 400 65 450 61.8C500 58.7 550 52.3 600 49C650 45.7 700 45.3 750 46.2C800 47 850 49 875 50L900 51L900 0L875 0C850 0 800 0 750 0C700 0 650 0 600 0C550 0 500 0 450 0C400 0 350 0 300 0C250 0 200 0 150 0C100 0 50 0 25 0L0 0Z" fill="#0d6efd"></path></svg>